PathFileType	4	(x/y/z)	S02_SL_Cal_T01
DataRate	CameraRate	NumFrames	NumMarkers	Units	OrigDataRate	OrigDataStartFrame	OrigNumFrames
240	240	9	51	mm	240	901	2400
Frame#	Time	Sternum			R.Acromium			L.Acromium			Top.Head			R.ASIS			L.ASIS			R.PSIS			L.PSIS			R.Great.Tro			L.Great.Tro			R.Iliac.Crest			L.Iliac.Crest			V.Sacral			R.Thigh.Upper.Post			R.Thigh.Lower.Ant			R.Thigh.Lower.Post			R.Thigh.Upper.Ant			R.Knee.Lat			R.Knee.Med			R.Shank.Upper.Post			R.Shank.Lower.Ant			R.Shank.Lower.Post			R.Shank.Upper.Ant			R.Ankle.Lat			R.Ankle.Med			R.Heel.Upper			R.Heel.Med			R.Heel.Lat			R.Toe.Lat			R.Toe.Med			R.Toe.Tip			L.Thigh.Upper.Post			L.Thigh.Lower.Ant			L.Thigh.Lower.Post			L.Thigh.Upper.Ant			L.Knee.Lat			L.Knee.Med			L.Shank.Upper.Post			L.Shank.Lower.Ant			L.Shank.Lower.Post			L.Shank.Upper.Ant			L.Ankle.Lat			L.Ankle.Med			L.Heel.Upper			L.Heel.Med			L.Heel.Lat			L.Toe.Lat			L.Toe.Med			L.Toe.Tip			Cervical.Spine			Back			
		X1	Y1	Z1	X2	Y2	Z2	X3	Y3	Z3	X4	Y4	Z4	X5	Y5	Z5	X6	Y6	Z6	X7	Y7	Z7	X8	Y8	Z8	X9	Y9	Z9	X10	Y10	Z10	X11	Y11	Z11	X12	Y12	Z12	X13	Y13	Z13	X14	Y14	Z14	X15	Y15	Z15	X16	Y16	Z16	X17	Y17	Z17	X18	Y18	Z18	X19	Y19	Z19	X20	Y20	Z20	X21	Y21	Z21	X22	Y22	Z22	X23	Y23	Z23	X24	Y24	Z24	X25	Y25	Z25	X26	Y26	Z26	X27	Y27	Z27	X28	Y28	Z28	X29	Y29	Z29	X30	Y30	Z30	X31	Y31	Z31	X32	Y32	Z32	X33	Y33	Z33	X34	Y34	Z34	X35	Y35	Z35	X36	Y36	Z36	X37	Y37	Z37	X38	Y38	Z38	X39	Y39	Z39	X40	Y40	Z40	X41	Y41	Z41	X42	Y42	Z42	X43	Y43	Z43	X44	Y44	Z44	X45	Y45	Z45	X46	Y46	Z46	X47	Y47	Z47	X48	Y48	Z48	X49	Y49	Z49	X50	Y50	Z50	X51	Y51	Z51	

901	3.75	631.98	1122.8	313.23	504.42	1355.5	446.47	514.16	1349.7	150.26	553.98	1643.3	296.98	592.99	938.91	417.79	617.32	926.09	205.09	383.87	971.18	339.76	387.38	970.36	264.62	504.57	834.17	505.4	493.87	841.24	108.39	489.57	988.35	464.82	503.07	976.13	130.72	360.05	922.63	296.16	507.26	630.73	502.64	554.76	544.75	473.27	483.13	543.87	489.5	573.43	631.96	482.34	494.55	464.14	478.05	485.23	438.04	335.91	416.39	257.03	477.15	493.89	179.28	469.37	427.43	184.48	473.1	489.2	248.53	481.36	451.95	89.435	468.46	467.14	96.837	385.49	397.78	71.889	408.95	415.14	40.473	383.38	397.47	41.011	445.08	552.81	41.586	508.07	598.54	35.662	405.31	638.34	65.082	467	449.24	624.75	119.35	516.13	537.08	119.01	438.59	534.95	133.25	519.67	631.69	105.69	490.54	460.18	123.1	481.85	444.42	262.95	409.6	288.78	112.6	487.12	207.85	114.66	415.23	215.12	122.99	474.31	283.16	105.51	457.71	99.627	120.24	477.09	92.569	201.19	403.87	65.091	159.12	417.48	39.66	191.26	407.21	37.636	130.43	567.8	37.322	79.663	602.63	47.407	184.57	655.74	66.416	131.07	432.55	1407.7	294.47	368.4	1156.2	301.29
902	3.7542	632.04	1122.8	313.25	504.48	1355.4	446.51	514.21	1349.7	150.3	554.09	1643.3	297.05	593.06	938.9	417.76	617.39	926.1	205.06	383.93	971.18	339.75	387.44	970.37	264.61	504.62	834.17	505.37	493.91	841.25	108.37	489.42	988.36	464.8	503.13	976.15	130.72	360.1	922.64	296.15	507.3	630.73	502.61	554.78	544.75	473.24	483.16	543.87	489.48	573.46	631.96	482.31	494.56	464.14	478.02	485.24	438.04	335.89	416.39	257.04	477.12	493.9	179.29	469.36	427.43	184.49	473.09	489.18	248.54	481.34	451.96	89.441	468.45	467.14	96.837	385.48	397.78	71.891	408.95	415.14	40.474	383.37	397.47	41.017	445.07	552.81	41.584	508.07	598.55	35.655	405.31	638.35	65.073	467.01	449.24	624.75	119.35	516.13	537.08	118.99	438.6	534.95	133.26	519.67	631.69	105.67	490.53	460.18	123.1	481.91	444.43	262.95	409.57	288.78	112.64	487.1	207.85	114.66	415.21	215.12	123.02	474.28	283.17	105.51	457.71	99.63	120.25	477.1	92.57	201.19	403.88	65.093	159.12	417.48	39.662	191.27	407.21	37.641	130.43	567.8	37.318	79.659	602.64	47.407	184.57	655.75	66.401	131.06	432.61	1407.7	294.52	368.46	1156.2	301.31
903	3.7583	632.09	1122.8	313.27	504.54	1355.4	446.56	514.26	1349.7	150.34	554.2	1643.3	297.12	593.12	938.89	417.74	617.47	926.12	205.03	384	971.18	339.75	387.49	970.37	264.6	504.68	834.16	505.34	493.95	841.26	108.35	489.27	988.36	464.78	503.18	976.18	130.71	360.16	922.65	296.14	507.33	630.72	502.59	554.81	544.74	473.21	483.18	543.87	489.45	573.49	631.96	482.28	494.58	464.14	478	485.26	438.04	335.87	416.4	257.05	477.09	493.9	179.29	469.36	427.43	184.5	473.07	489.17	248.54	481.32	451.96	89.446	468.44	467.15	96.837	385.48	397.79	71.893	408.95	415.14	40.475	383.37	397.47	41.023	445.07	552.81	41.582	508.07	598.56	35.647	405.31	638.36	65.063	467.01	449.24	624.75	119.35	516.13	537.08	118.98	438.61	534.96	133.27	519.67	631.69	105.65	490.52	460.18	123.1	481.97	444.45	262.96	409.55	288.78	112.68	487.08	207.86	114.66	415.19	215.13	123.05	474.26	283.18	105.51	457.71	99.633	120.26	477.11	92.571	201.19	403.88	65.095	159.13	417.48	39.663	191.27	407.22	37.646	130.43	567.8	37.313	79.655	602.64	47.406	184.56	655.75	66.387	131.06	432.67	1407.7	294.57	368.52	1156.2	301.34
904	3.7625	632.15	1122.8	313.3	504.59	1355.4	446.61	514.31	1349.7	150.38	554.31	1643.3	297.2	593.18	938.88	417.72	617.54	926.14	205.01	384.06	971.19	339.74	387.55	970.38	264.6	504.73	834.16	505.31	493.99	841.27	108.32	489.11	988.37	464.76	503.23	976.2	130.7	360.21	922.66	296.13	507.36	630.72	502.56	554.83	544.74	473.18	483.21	543.87	489.43	573.52	631.95	482.25	494.59	464.14	477.98	485.27	438.04	335.84	416.4	257.06	477.07	493.9	179.3	469.35	427.43	184.5	473.06	489.16	248.55	481.3	451.97	89.451	468.43	467.16	96.837	385.47	397.79	71.895	408.94	415.15	40.475	383.37	397.48	41.029	445.07	552.82	41.58	508.07	598.57	35.64	405.31	638.37	65.054	467.01	449.25	624.75	119.35	516.13	537.08	118.97	438.62	534.96	133.28	519.68	631.68	105.63	490.51	460.18	123.1	482.04	444.46	262.96	409.53	288.78	112.72	487.05	207.86	114.66	415.17	215.13	123.08	474.24	283.19	105.52	457.71	99.636	120.27	477.12	92.572	201.2	403.88	65.097	159.13	417.49	39.665	191.28	407.22	37.651	130.43	567.8	37.309	79.651	602.65	47.406	184.56	655.76	66.372	131.05	432.72	1407.7	294.63	368.58	1156.2	301.36
905	3.7667	632.21	1122.7	313.32	504.65	1355.4	446.66	514.36	1349.7	150.42	554.42	1643.3	297.28	593.25	938.87	417.69	617.61	926.15	204.98	384.12	971.19	339.73	387.61	970.39	264.59	504.79	834.15	505.28	494.03	841.28	108.3	488.96	988.38	464.74	503.29	976.22	130.69	360.27	922.67	296.12	507.39	630.72	502.53	554.86	544.74	473.15	483.23	543.87	489.4	573.55	631.95	482.23	494.6	464.14	477.95	485.29	438.05	335.82	416.4	257.07	477.05	493.9	179.31	469.34	427.44	184.51	473.04	489.15	248.55	481.29	451.98	89.456	468.43	467.17	96.838	385.47	397.8	71.897	408.94	415.15	40.476	383.37	397.48	41.035	445.06	552.82	41.579	508.06	598.57	35.632	405.31	638.38	65.044	467.02	449.25	624.76	119.36	516.14	537.08	118.96	438.62	534.97	133.3	519.68	631.68	105.61	490.49	460.18	123.1	482.1	444.47	262.96	409.51	288.79	112.75	487.03	207.86	114.66	415.15	215.13	123.12	474.22	283.2	105.52	457.71	99.639	120.27	477.13	92.573	201.2	403.89	65.099	159.13	417.49	39.666	191.28	407.22	37.656	130.43	567.8	37.304	79.647	602.65	47.406	184.56	655.76	66.356	131.04	432.78	1407.7	294.68	368.64	1156.2	301.38
906	3.7708	632.27	1122.7	313.34	504.7	1355.4	446.7	514.4	1349.7	150.46	554.52	1643.3	297.36	593.31	938.86	417.67	617.67	926.17	204.96	384.18	971.2	339.72	387.67	970.4	264.58	504.84	834.15	505.25	494.07	841.29	108.27	488.81	988.38	464.72	503.34	976.25	130.68	360.33	922.67	296.11	507.42	630.72	502.51	554.88	544.73	473.12	483.25	543.87	489.38	573.58	631.95	482.2	494.61	464.14	477.93	485.3	438.05	335.8	416.41	257.08	477.03	493.9	179.31	469.33	427.44	184.51	473.03	489.14	248.55	481.27	451.98	89.46	468.42	467.18	96.838	385.46	397.81	71.899	408.93	415.15	40.477	383.37	397.48	41.041	445.06	552.82	41.577	508.06	598.58	35.625	405.31	638.39	65.035	467.02	449.26	624.76	119.36	516.14	537.08	118.95	438.63	534.97	133.31	519.68	631.68	105.6	490.48	460.18	123.1	482.17	444.48	262.97	409.48	288.79	112.79	487.01	207.87	114.66	415.13	215.13	123.15	474.2	283.21	105.52	457.71	99.642	120.28	477.13	92.574	201.2	403.89	65.102	159.14	417.49	39.668	191.28	407.22	37.661	130.44	567.8	37.3	79.643	602.66	47.406	184.55	655.77	66.34	131.03	432.83	1407.7	294.73	368.7	1156.2	301.4
907	3.775	632.32	1122.7	313.36	504.76	1355.4	446.75	514.45	1349.7	150.5	554.63	1643.2	297.45	593.38	938.85	417.65	617.73	926.18	204.94	384.25	971.2	339.71	387.73	970.41	264.57	504.89	834.14	505.21	494.11	841.3	108.25	488.68	988.39	464.7	503.4	976.27	130.67	360.39	922.68	296.1	507.44	630.71	502.48	554.9	544.73	473.1	483.27	543.87	489.36	573.6	631.94	482.17	494.61	464.14	477.91	485.32	438.05	335.78	416.41	257.09	477.01	493.9	179.32	469.32	427.44	184.52	473.01	489.13	248.56	481.26	451.99	89.464	468.42	467.19	96.839	385.46	397.81	71.901	408.93	415.16	40.478	383.37	397.49	41.047	445.06	552.83	41.576	508.06	598.59	35.617	405.31	638.4	65.025	467.03	449.27	624.76	119.36	516.15	537.08	118.93	438.64	534.98	133.32	519.68	631.68	105.58	490.47	460.18	123.1	482.23	444.49	262.97	409.46	288.79	112.83	486.99	207.87	114.66	415.11	215.13	123.19	474.18	283.22	105.53	457.71	99.645	120.29	477.14	92.574	201.2	403.89	65.105	159.14	417.49	39.669	191.29	407.23	37.666	130.44	567.8	37.295	79.64	602.67	47.406	184.55	655.77	66.324	131.03	432.89	1407.7	294.79	368.76	1156.2	301.42
908	3.7792	632.38	1122.7	313.37	504.81	1355.4	446.8	514.49	1349.7	150.54	554.73	1643.2	297.54	593.44	938.84	417.62	617.79	926.19	204.91	384.31	971.21	339.7	387.79	970.42	264.56	504.95	834.13	505.18	494.16	841.31	108.23	488.57	988.39	464.69	503.46	976.29	130.66	360.45	922.69	296.08	507.47	630.71	502.46	554.92	544.73	473.07	483.3	543.87	489.33	573.63	631.94	482.15	494.62	464.14	477.89	485.33	438.05	335.76	416.41	257.1	476.99	493.9	179.32	469.32	427.45	184.53	473	489.13	248.56	481.25	452	89.468	468.41	467.2	96.839	385.45	397.82	71.904	408.93	415.16	40.479	383.36	397.49	41.054	445.06	552.83	41.574	508.06	598.6	35.61	405.31	638.42	65.016	467.03	449.27	624.76	119.36	516.15	537.08	118.92	438.65	534.98	133.34	519.69	631.68	105.56	490.46	460.18	123.11	482.29	444.5	262.97	409.44	288.8	112.87	486.96	207.87	114.66	415.09	215.14	123.22	474.16	283.23	105.53	457.71	99.648	120.29	477.15	92.575	201.21	403.9	65.108	159.15	417.5	39.67	191.29	407.23	37.671	130.44	567.81	37.291	79.636	602.67	47.406	184.54	655.78	66.307	131.02	432.94	1407.7	294.84	368.82	1156.2	301.45
909	3.7833	632.44	1122.7	313.39	504.87	1355.3	446.84	514.54	1349.8	150.58	554.83	1643.2	297.62	593.51	938.83	417.6	617.84	926.2	204.89	384.37	971.21	339.69	387.86	970.43	264.55	505	834.13	505.14	494.2	841.31	108.2	488.48	988.39	464.67	503.51	976.32	130.65	360.51	922.7	296.07	507.5	630.71	502.43	554.94	544.72	473.04	483.32	543.87	489.31	573.66	631.94	482.12	494.63	464.14	477.87	485.35	438.06	335.74	416.42	257.11	476.97	493.9	179.33	469.31	427.45	184.53	472.98	489.13	248.57	481.23	452	89.471	468.41	467.21	96.84	385.45	397.82	71.907	408.92	415.17	40.48	383.36	397.49	41.06	445.05	552.84	41.573	508.06	598.61	35.602	405.32	638.43	65.006	467.03	449.28	624.76	119.37	516.15	537.08	118.92	438.66	534.98	133.35	519.69	631.68	105.55	490.45	460.18	123.11	482.35	444.51	262.98	409.42	288.8	112.9	486.94	207.87	114.66	415.07	215.14	123.25	474.14	283.24	105.54	457.71	99.651	120.3	477.16	92.576	201.21	403.9	65.111	159.15	417.5	39.672	191.3	407.23	37.676	130.44	567.81	37.286	79.632	602.68	47.405	184.54	655.79	66.29	131.01	432.99	1407.7	294.89	368.88	1156.2	301.47
